<svg xmlns="http://www.w3.org/2000/svg" xmlns:xlink="http://www.w3.org/1999/xlink" width="200" height="200" class="icon" p-id="1616" t="1544190501073" version="1.1" viewBox="0 0 1024 1024"><defs><style type="text/css"/></defs><path fill="#fff" d="M736 400h-16v-128c0-105.6-86.4-192-192-192h-32c-105.6 0-192 86.4-192 192v128h-16c-105.6 0-192 86.4-192 192v160c0 105.6 86.4 192 192 192h448c105.6 0 192-86.4 192-192V592c0-105.6-86.4-192-192-192z m-368-128c0-70.4 57.6-128 128-128h32c70.4 0 128 57.6 128 128v128H368v-128z m496 480c0 70.4-57.6 128-128 128H288c-70.4 0-128-57.6-128-128V592c0-70.4 57.6-128 128-128h448c70.4 0 128 57.6 128 128v160z" class="selected" data-spm-anchor-id="a313x.7781069.0.i2" p-id="1617"/><path fill="#fff" d="M512 560c-35.2 0-64 28.8-64 64 0 24 12.8 44.8 32 56V752c0 17.6 14.4 32 32 32s32-14.4 32-32v-72c19.2-11.2 32-32 32-56 0-35.2-28.8-64-64-64z" class="selected" data-spm-anchor-id="a313x.7781069.0.i4" p-id="1618"/></svg>