<svg xmlns="http://www.w3.org/2000/svg" xmlns:xlink="http://www.w3.org/1999/xlink" width="200" height="200" class="icon" p-id="1934" t="1542834780617" version="1.1" viewBox="0 0 1024 1024"><defs><style type="text/css"/></defs><path fill="#3d4852" d="M512 832c-155.2 0-297.6-96-424-284.8-14.4-22.4-14.4-49.6 0-72C214.4 288 356.8 192 512 192s297.6 96 424 284.8c14.4 22.4 14.4 49.6 0 72C809.6 736 667.2 832 512 832z m0-576c-132.8 0-257.6 86.4-371.2 256C256 681.6 380.8 768 512 768s257.6-86.4 371.2-256C769.6 342.4 644.8 256 512 256z" p-id="1935"/><path fill="#3d4852" d="M512 640c-70.4 0-128-57.6-128-128s57.6-128 128-128 128 57.6 128 128-57.6 128-128 128z m0-192c-35.2 0-64 28.8-64 64s28.8 64 64 64 64-28.8 64-64-28.8-64-64-64z" p-id="1936"/></svg>